<svg id="confetti-346-285_Image" data-name="confetti-346-285 Image" xmlns="http://www.w3.org/2000/svg" viewBox="0 0 346 285"><defs><style>.cls-1{fill:#fefdfd;}.cls-2{fill:#71488c;}.cls-3{fill:#d4ef44;}.cls-4{fill:#fc57b2;}.cls-5{fill:#fb2d2f;}.cls-6{fill:#32e3e6;}.cls-7{fill:#fb57b2;}.cls-8{fill:#fa51b2;}.cls-9{fill:#fc56b2;}.cls-10{fill:#34e4e7;}.cls-11{fill:#fa2e30;}.cls-12{fill:#c896bf;}.cls-13{fill:#fde12d;}.cls-14{fill:#fcdf2e;}.cls-15{fill:#74407e;}.cls-16{fill:#fcac65;}.cls-17{fill:#09c3f3;}.cls-18{fill:#07c3f5;}.cls-19{fill:#fd53a0;}.cls-20{fill:#28e1d8;}.cls-21{fill:#0abae7;}.cls-22{fill:#fb4dad;}.cls-23{fill:#763377;}.cls-24{fill:#f6a766;}.cls-25{fill:#fcce26;}.cls-26{fill:#6d3e85;}.cls-27{fill:#753583;}.cls-28{fill:#fc429e;}.cls-29{fill:#51cede;}.cls-30{fill:#0bdfe5;}</style></defs><path class="cls-1" d="M346,111.92V285H0V0H346V94.9l-3-7.46c-.21-1.46-.36-2.94-.65-4.38-1.13-5.72-2.31-11.42-3.47-17.13-.62-3.22-1.24-6.44-1.93-10.07-6.31,5.32-12.81,9-20.64,10.21s-15-.38-22.92-2.54c1.31,7.32,2.44,13.82,3.67,20.29a3.12,3.12,0,0,0,1.23,2c2.75,1.48,5.47,3.22,8.44,4.05,6,1.67,12.07,2.81,18.13,4.16-.19,1.47,0,3.15-.62,4.35-4.1,7.46-10.92,11.51-18.6,14.4-4.89-2.43-9.85-4.75-14.65-7.36a5.15,5.15,0,0,0-5.54-.17,74.15,74.15,0,0,0-6.92,3.9c-9.4,6.81-13.62,16.45-14.74,27.7L253,129.53c-6.22,5.06-7.36,10.06-3.76,17.6l-4.17,1c-6.45.48-11.87,3.27-17,7.39,1.1,3.57,2.15,7,3.21,10.42l-.32,1c-2.29.64-4.29,1.47-5,4.18-3.65,14-1.57,26.56,9.16,37,.64,1,1.28,1.95,1.93,2.92-1.73,5.27-3.47,10.54-5.35,16.28,1.75,0,4.21.51,6.36-.1,4.28-1.22,8.38-3.09,12.58-4.63,9.14-3.35,11.11-6.86,9.12-16.47a32.84,32.84,0,0,0-1.17-3.55l-4.95-1.58,13.22-9.06c-7.73-4.2-13.49-9.7-16.13-17.91a2.46,2.46,0,0,0,.3-.95c6.22-2,12.56-1.68,19.46-.4-1.36-5.7-2.56-10.68-3.75-15.66l.13-4c.64-.4,1.48-.66,1.88-1.23,1.87-2.68,3.62-5.45,5.41-8.19l15.59,7.67c.43-4.87.36-9.71,1.37-14.31,1.86-8.49,6.07-15.66,13.83-20.25l5.25,6.25a1.87,1.87,0,0,0-.09.88,28.32,28.32,0,0,0-11.55,10c-4.7,6.72-4.7,6.71.74,13,.76.88,1.43,1.84,2.18,2.73L315.42,166c3.83-15.74,13.48-24.65,29.44-27.8L333.52,124.6l.54-1.65a31.16,31.16,0,0,0,4.35-3C341.05,117.37,343.48,114.6,346,111.92Zm-113.24-89c.31-5.07-1.35-8.78-6.81-9.86l-3.68-3.44c-2.57.44-5,.89-7.47,1.26-5.67.85-11.66.95-15.12,6.74l-8.76-1.06c.33,4.93.64,9.65,1,14.38-4.93,3.42-7.56,8.47-10.27,14.19l22,18c2.9-11.6,8.46-20.42,19-25.42.34,3.18,1.43,6.5.87,9.51-1,5.61-3,11-4.72,16.83,4.87,0,10,.16,15.1-.11a6.2,6.2,0,0,0,3.95-2.31c7.38-9.42,9.44-20.1,6.75-31.66-1.2-5.15-1.4-5.12-6.71-5.13-1.32,0-2.65.09-4,.14ZM47.84,51.18l-4.2.54-1.41,0c0-.62-.16-1.42.15-1.84,7.25-9.76,6.82-29.2-3.66-38.85L11.64,21.16C21.6,28.67,25.44,38.3,25,49.87l-1.09,1.87A15.8,15.8,0,0,0,21,53.64C11.7,63.34,8.54,74.83,11.12,88c.5,2.52,2.2,3.35,4.46,3.91,7.77,2,15.51,4,23.25,6.07a5.16,5.16,0,0,0,1.56.92,36.42,36.42,0,0,1,17.73,8.45c5.93,5,9.48,11.39,11.88,17.66,5.46-5,11.11-10.16,16.58-15.47a4.35,4.35,0,0,0,.73-3.6c-1.38-5.09-2.35-10.46-4.74-15.08-5-9.65-13-16-23.35-19.21L41.07,92l-3-9.64.88-.56,6.87,2.69C46.66,74.29,51,66.19,60.62,60.79L49.05,51.63ZM132,151.86l.79,2.06c-1.63,5.14-3.25,10.28-4.74,15,5,0,10.39.13,15.81-.1a6.34,6.34,0,0,0,3.73-2.11c7-7.47,9.41-16.16,6.57-26.13l.2-1.6c4.86-6.22,5-13.41,4.56-21.33l-32.4-5.7a40,40,0,0,1,.46,20.6l-.9,2.2-8.18,12.54Zm81.32,84.44c3.93-.81,6.14-3.08,6-7.25-.14-4,.3-8.09-.69-11.84-1.57-5.94-4.55-11.3-10.22-14.79l-17.56,11.29c3.54,4.22,6.89,8.2,10.24,12.17L187,226l1.35-4.91c-10.57-.66-18.83-5-24.19-14.73-3.12,3.82-5.92,7-8.41,10.46-.6.83-.44,2.47-.15,3.61,1.85,7.49,7.37,11.86,13.54,15.63-2,2.82-1.45,5.17.68,7.86,3.06,3.85,5.6,8.12,8.39,12.19,1.45,2.1,2.95,4.16,4.29,6.05l5.11-3.27c8.5,4.19,17.12,3.3,26,.89-.29-5.07-.56-9.83-.83-14.59,1.74-.38,2.68-1.12,1.55-3-.57-.94-1-2-1.46-3ZM52.63,153.49C46,164,35.93,168.43,23.56,169.2c3,5.45,5.56,10.27,8.23,15a3.24,3.24,0,0,0,1.7,1.51,30,30,0,0,0,24.79-3.57l2.81-1.11L59.7,197.8c8.35-2.12,16.67-4.32,25-6.29a6.75,6.75,0,0,0,5-4.3C97.88,169,96.1,151.71,85.58,135c-1.85-2.94-3.9-3.65-7-2.78C72,134,65.42,135.73,58.83,137.43c-5.24,1.35-10.5,2.6-16.58,4.11l10.48,10.69ZM164.76,40.17c-.77-.15-1.12-.33-1.4-.26C155.2,42,147,44.13,138.9,46.4A5.16,5.16,0,0,0,136,48.73c-1.78,3.53-3.77,7.08-4.76,10.86C128,71.67,130.06,82.91,137.7,93c1.77,2.34,3.53,3.35,6.74,2.21,4.5-1.6,9.3-2.35,13.94-3.59,7-1.86,14-3.84,21.19-5.84C164,72.78,159.79,59.8,164.76,40.17ZM247,122.68c-2.11-6.2-3.88-11.69-5.88-17.1a5.41,5.41,0,0,0-2.49-2.72c-10.27-4.92-20.37-3.86-30.1,1.48-1.48.82-3.34,3.33-3,4.59,1.93,8.3,4.41,16.48,7,25.61C221.66,122.87,232.8,119.65,247,122.68ZM287.76,96c-5.71-4.9-10.29-9.8-11.5-16.31s-1-13-1.42-19.68c-4.29,1.55-9.16,3.17-13.92,5.07a7.35,7.35,0,0,0-3.69,3c-4.93,9.75-5.23,23.14,3,33.24a3.62,3.62,0,0,0,2.82,1.34C271,100.57,279,98.35,287.76,96ZM84.87,255.42c11.64,4,18.61,11.5,21.43,23.41,3.49-2.5,6.31-4.75,9.36-6.62a4.61,4.61,0,0,0,2.41-4.44c.17-10-4.92-16.91-13-21.92a4.81,4.81,0,0,0-4.09-.18C95.66,248.65,90.54,252,84.87,255.42ZM144,265.34c8.75-6.42,17.77-6.64,26.84-3.11,0-3.71.23-7-.1-10.27a8.42,8.42,0,0,0-2.11-4.77c-5-5-18.59-6.45-24.71-2.69a4,4,0,0,0-1.67,3.07C142.64,253.31,143.33,259,144,265.34Z"/><path class="cls-2" d="M310.19,122.9l-5.25-6.25c.85-1.18,3.15-2.1.69-3.87,7.68-2.89,14.5-6.94,18.6-14.4.66-1.2.43-2.88.62-4.35l.22-.24L332.21,92l4.54,5,9.25,10v5c-2.52,2.68-4.95,5.45-7.59,8a31.16,31.16,0,0,1-4.35,3c-2.34-1-4.6-2.62-7-2.91A30.12,30.12,0,0,0,310.19,122.9Z"/><path class="cls-3" d="M336.75,97l-4.54-5L343,87.44l3,7.46v2Z"/><path class="cls-1" d="M336.75,97l9.25,0v10Z"/><path class="cls-4" d="M52.73,152.23,42.25,141.54c6.08-1.51,11.34-2.76,16.58-4.11,6.59-1.7,13.17-3.43,19.73-5.24,3.12-.87,5.17-.16,7,2.78,10.52,16.74,12.3,34.06,4.14,52.24a6.75,6.75,0,0,1-5,4.3c-8.38,2-16.7,4.17-25,6.29.48-5.67.93-11.2,1.39-16.73a1.23,1.23,0,0,0,.11-.82l-.26-.06.27,0a65.09,65.09,0,0,0,6.09-4.72,3.31,3.31,0,0,0,.26-3.1C63.2,165,58.68,157.62,54,149.83Z"/><path class="cls-3" d="M164.76,40.17c-5,19.63-.8,32.61,14.81,45.61-7.23,2-14.2,4-21.19,5.84-4.64,1.24-9.44,2-13.94,3.59-3.21,1.14-5,.13-6.74-2.21-7.64-10.09-9.66-21.33-6.47-33.41,1-3.78,3-7.33,4.76-10.86a5.16,5.16,0,0,1,2.91-2.33c8.12-2.27,16.3-4.36,24.46-6.49C163.64,39.84,164,40,164.76,40.17Z"/><path class="cls-5" d="M41.07,92l18.15-20.4c10.32,3.2,18.37,9.56,23.35,19.21,2.39,4.62,3.36,10,4.74,15.08a4.35,4.35,0,0,1-.73,3.6C81.11,114.83,75.46,119.94,70,125c-2.4-6.27-6-12.71-11.88-17.66a36.42,36.42,0,0,0-17.73-8.45A5.16,5.16,0,0,1,38.83,98l3.94-.52Z"/><path class="cls-6" d="M305.63,112.78c2.46,1.77.16,2.69-.69,3.87-7.76,4.59-12,11.76-13.83,20.25-1,4.6-.94,9.44-1.37,14.31l-15.59-7.67-10.37-6.69c1.12-11.25,5.34-20.89,14.74-27.7a74.15,74.15,0,0,1,6.92-3.9,5.15,5.15,0,0,1,5.54.17C295.78,108,300.74,110.35,305.63,112.78Z"/><path class="cls-7" d="M333.52,124.6l11.34,13.57c-16,3.15-25.61,12.06-29.44,27.8l-13.95-16.46c-.75-.89-1.42-1.85-2.18-2.73-5.44-6.31-5.44-6.3-.74-13a28.32,28.32,0,0,1,11.55-10c3.08,4.26,7.42,5.1,12.16,4.07C326.07,127,329.77,125.71,333.52,124.6Z"/><path class="cls-8" d="M212.87,239.19c.48,1,.89,2,1.46,3,1.13,1.89.19,2.63-1.55,3-10.55.61-19.33,4.47-25.2,13.7l-5.11,3.27c-1.34-1.89-2.84-3.95-4.29-6.05-2.79-4.07-5.33-8.34-8.39-12.19-2.13-2.69-2.64-5-.68-7.86C174.2,231.15,180,227.5,187,226l14.1-.09,1,1.09,3.83,15.84,6.08-3.89A1.82,1.82,0,0,0,212.87,239.19Z"/><path class="cls-9" d="M25,49.87c.49-11.57-3.35-21.2-13.31-28.71L38.72,11c10.48,9.65,10.91,29.09,3.66,38.85-.31.42-.11,1.22-.15,1.84l-5.32,1.18h0c-.28-.9-.52-2.57-.83-2.58C32.38,50.14,28.74,47.3,25,49.87Z"/><path class="cls-3" d="M247,122.68c-14.24-3-25.38.19-34.55,11.86-2.55-9.13-5-17.31-7-25.61-.3-1.26,1.56-3.77,3-4.59,9.73-5.34,19.83-6.4,30.1-1.48a5.41,5.41,0,0,1,2.49,2.72C243.16,111,244.93,116.48,247,122.68Z"/><path class="cls-10" d="M287.76,96c-8.79,2.39-16.73,4.61-24.71,6.63a3.62,3.62,0,0,1-2.82-1.34c-8.23-10.1-7.93-23.49-3-33.24a7.35,7.35,0,0,1,3.69-3c4.76-1.9,9.63-3.52,13.92-5.07.42,6.68.23,13.31,1.42,19.68S282.05,91.06,287.76,96Z"/><path class="cls-9" d="M41.07,92l1.7,5.41L38.83,98c-7.74-2-15.48-4.12-23.25-6.07-2.26-.56-4-1.39-4.46-3.91C8.54,74.83,11.7,63.34,21,53.64a15.8,15.8,0,0,1,2.84-1.9l.58,4.61,12.47-3.47h0c-1.45,2-2.61,4.22-4.4,5.77-3.08,2.67-4.5,6-5.37,9.81C26.57,71,27,73,29.25,74.55c2.67,1.81,5.3,3.68,7.84,5.67.55.42.65,1.43.95,2.17Z"/><path class="cls-11" d="M235.11,208.05c-10.73-10.43-12.81-23-9.16-37,.71-2.71,2.71-3.54,5-4.18l5.63,17.45c4.24-4.83,8.19-9.05,14.14-10.38,2.64,8.21,8.4,13.71,16.13,17.91l-13.22,9.06L251,201l-18.35-4.28a59.43,59.43,0,0,1,2.49,6.8A19.07,19.07,0,0,1,235.11,208.05Z"/><path class="cls-6" d="M324.85,94c-6.06-1.35-12.17-2.49-18.13-4.16-3-.83-5.69-2.57-8.44-4.05a3.12,3.12,0,0,1-1.23-2c-1.23-6.47-2.36-13-3.67-20.29,7.91,2.16,15.24,3.74,22.92,2.54s14.33-4.89,20.64-10.21c.69,3.63,1.31,6.85,1.93,10.07a7.8,7.8,0,0,1-2.12.64c-1.07,0-2.55-.77-3.13-.31-2.65,2.14-5.86,4.16-7.37,7-2.88,5.43-5.89,11.15-4.29,16.49l3.11,4Z"/><path class="cls-12" d="M233.88,24.93c1.32-.05,2.65-.15,4-.14,5.31,0,5.51,0,6.71,5.13,2.69,11.56.63,22.24-6.75,31.66a6.2,6.2,0,0,1-3.95,2.31c-5.1.27-10.23.11-15.1.11,1.68-5.79,3.68-11.22,4.72-16.83.56-3-.53-6.33-.87-9.51L220.79,36l4.15-2.2,9.48,1.14C234.21,31.17,234.05,28.05,233.88,24.93Z"/><path class="cls-13" d="M58.28,182.18a30,30,0,0,1-24.79,3.57,3.24,3.24,0,0,1-1.7-1.51c-2.67-4.77-5.26-9.59-8.23-15C35.93,168.43,46,164,52.63,153.49c2.33,5.95,4.84,11.83,6.92,17.87,1,2.81,1.13,5.89,1.66,8.85l-.27,0,.26.06C57.84,179.91,57.48,180.15,58.28,182.18Z"/><path class="cls-2" d="M231.27,165.92c-1.06-3.42-2.11-6.85-3.21-10.42,5.09-4.12,10.51-6.91,17-7.39,2.19.84,4.89,1.15,6.47,2.64,4.37,4.11,9.7,5.29,15.24,6.19,1.19,5,2.39,10,3.75,15.66-6.9-1.28-13.24-1.58-19.46.4L248,159.78a25.3,25.3,0,0,0-5.11.95C238.93,162.31,235.12,164.17,231.27,165.92Z"/><path class="cls-14" d="M127,132.54a40,40,0,0,0-.46-20.6l32.4,5.7c.48,7.92.3,15.11-4.56,21.33-.58-3.83-2.47-5.43-6.66-5.38C140.79,133.67,133.88,132.93,127,132.54Z"/><path class="cls-15" d="M224.94,33.8,220.79,36c-5.46-.21-9.41,3.15-13.65,6.1L205,39.2c-.31-1.78-.48-3.6-.94-5.34-1.42-5.44-2.94-10.86-4.42-16.29,3.46-5.79,9.45-5.89,15.12-6.74,2.45-.37,4.9-.82,7.47-1.26L226,13l-1,5.84c-1.3,2.26-2.61,4.51-4.54,7.85A10,10,0,0,0,224.94,33.8Z"/><path class="cls-16" d="M84.87,255.42c5.67-3.47,10.79-6.77,16.08-9.75a4.81,4.81,0,0,1,4.09.18c8.11,5,13.2,11.89,13,21.92a4.61,4.61,0,0,1-2.41,4.44c-3,1.87-5.87,4.12-9.36,6.62C103.48,266.92,96.51,259.38,84.87,255.42Z"/><path class="cls-17" d="M205,39.2l2.1,2.9c4.24-3,8.19-6.31,13.65-6.1l1.82,1.66c-10.51,5-16.07,13.82-19,25.42l-22-18c2.71-5.72,5.34-10.77,10.27-14.19.19,2.64,1.26,4.66,4,5.5C198.89,37.34,202,38.26,205,39.2Z"/><path class="cls-10" d="M202.06,227l-1-1.09c-3.35-4-6.7-7.95-10.24-12.17l17.56-11.29c5.67,3.49,8.65,8.85,10.22,14.79,1,3.75.55,7.88.69,11.84.15,4.17-2.06,6.44-6,7.25l-.42-.35v-9.23l-6,3.29C205.58,228.53,204.63,226.46,202.06,227Z"/><path class="cls-18" d="M144,265.34c-.65-6.31-1.34-12-1.75-17.77a4,4,0,0,1,1.67-3.07c6.12-3.76,19.7-2.32,24.71,2.69a8.42,8.42,0,0,1,2.11,4.77c.33,3.25.1,6.56.1,10.27C161.75,258.7,152.73,258.92,144,265.34Z"/><path class="cls-4" d="M251,201l2.65-.08,4.95,1.58a32.84,32.84,0,0,1,1.17,3.55c2,9.61,0,13.12-9.12,16.47-4.2,1.54-8.3,3.41-12.58,4.63-2.15.61-4.61.1-6.36.1,1.88-5.74,3.62-11,5.35-16.28L249,203.82l.46.7Z"/><path class="cls-12" d="M187,226c-7,1.53-12.77,5.18-17.86,10.06-6.17-3.77-11.69-8.14-13.54-15.63-.29-1.14-.45-2.78.15-3.61,2.49-3.43,5.29-6.64,8.41-10.46,5.36,9.77,13.62,14.07,24.19,14.73Z"/><path class="cls-4" d="M154.15,140.57c2.84,10,.43,18.66-6.57,26.13a6.34,6.34,0,0,1-3.73,2.11c-5.42.23-10.86.1-15.81.1,1.49-4.71,3.11-9.85,4.74-15,.91-.31,2.13-1.14,2.69-.82,2.33,1.31,4.1.67,6.41-.37C147.6,150.17,150.31,144.85,154.15,140.57Z"/><path class="cls-19" d="M154.15,140.57c-3.84,4.28-6.55,9.6-12.27,12.16-2.31,1-4.08,1.68-6.41.37-.56-.32-1.78.51-2.69.82l-.79-2.06a24.35,24.35,0,0,0-5.92-17.12l.9-2.2c6.91.39,13.82,1.13,20.72,1.05,4.19-.05,6.08,1.55,6.66,5.38Z"/><path class="cls-20" d="M325.07,93.79l-3.11-4c-1.6-5.34,1.41-11.06,4.29-16.49,1.51-2.86,4.72-4.88,7.37-7,.58-.46,2.06.33,3.13.31a7.8,7.8,0,0,0,2.12-.64c1.16,5.71,2.34,11.41,3.47,17.13.29,1.44.44,2.92.65,4.38L332.21,92Z"/><path class="cls-12" d="M263.78,136.85l10.37,6.69c-1.79,2.74-3.54,5.51-5.41,8.19-.4.57-1.24.83-1.88,1.23-5.2-4.05-11.33-5.26-17.67-5.83-3.6-7.54-2.46-12.54,3.76-17.6Z"/><path class="cls-21" d="M187.58,258.86c5.87-9.23,14.65-13.09,25.2-13.7.27,4.76.54,9.52.83,14.59C204.7,262.16,196.08,263.05,187.58,258.86Z"/><path class="cls-22" d="M38,82.39c-.3-.74-.4-1.75-.95-2.17-2.54-2-5.17-3.86-7.84-5.67C27,73,26.57,71,27.14,68.45c.87-3.79,2.29-7.14,5.37-9.81,1.79-1.55,3-3.82,4.4-5.77l5.32-1.18,1.41,0c1.54.87,3.06,1.69,4.2-.54l1.21.45a6.86,6.86,0,0,1-.83,2.28c-7.09,8-9.91,17.38-9.3,27.92Z"/><path class="cls-12" d="M38.92,81.83c-.61-10.54,2.21-19.93,9.3-27.92a6.86,6.86,0,0,0,.83-2.28l11.57,9.16c-9.66,5.4-14,13.5-14.83,23.73Z"/><path class="cls-23" d="M231.27,165.92c3.85-1.75,7.66-3.61,11.59-5.19a25.3,25.3,0,0,1,5.11-.95L251,173a2.46,2.46,0,0,1-.3.95c-5.95,1.33-9.9,5.55-14.14,10.38L231,166.88Z"/><path class="cls-24" d="M205,39.2c-3.07-.94-6.15-1.86-9.21-2.81-2.69-.84-3.76-2.86-4-5.5-.32-4.73-.63-9.45-1-14.38l8.76,1.06c1.48,5.43,3,10.85,4.42,16.29C204.56,35.6,204.73,37.42,205,39.2Z"/><path class="cls-25" d="M61.21,180.21c-.53-3-.69-6-1.66-8.85-2.08-6-4.59-11.92-6.92-17.87l.1-1.26,1.22-2.4c4.73,7.79,9.25,15.13,13.61,22.56a3.31,3.31,0,0,1-.26,3.1A65.09,65.09,0,0,1,61.21,180.21Z"/><path class="cls-26" d="M224.94,33.8a10,10,0,0,1-4.52-7.1c1.93-3.34,3.24-5.59,4.54-7.85l2,4h5.81l1.12,2.06c.17,3.12.33,6.24.54,10Z"/><path class="cls-27" d="M333.52,124.6c-3.75,1.11-7.45,2.43-11.26,3.25-4.74,1-9.08.19-12.16-4.07a1.87,1.87,0,0,1,.09-.88A30.12,30.12,0,0,1,327.05,120c2.41.29,4.67,1.9,7,2.91Z"/><path class="cls-28" d="M251,201l-1.56,3.52-.46-.7L237,211l-1.93-2.92a19.07,19.07,0,0,0,0-4.53,59.43,59.43,0,0,0-2.49-6.8Z"/><path class="cls-14" d="M126.07,134.74A24.35,24.35,0,0,1,132,151.86l-14.1-4.58Z"/><path class="cls-26" d="M249.19,147.13c6.34.57,12.47,1.78,17.67,5.83l-.13,4c-5.54-.9-10.87-2.08-15.24-6.19-1.58-1.49-4.28-1.8-6.47-2.64Z"/><path class="cls-22" d="M36.91,52.88,24.44,56.35l-.58-4.61L25,49.87c3.79-2.57,7.43.27,11.13.43C36.39,50.31,36.63,52,36.91,52.88Z"/><path class="cls-2" d="M232.76,22.87H227l-2-4L226,13C231.41,14.09,233.07,17.8,232.76,22.87Z"/><path class="cls-25" d="M58.28,182.18c-.8-2-.44-2.27,2.92-1.93a1.23,1.23,0,0,1-.11.82Z"/><path class="cls-9" d="M47.84,51.18c-1.14,2.23-2.66,1.41-4.2.54Z"/><path class="cls-10" d="M212.87,239.19a1.82,1.82,0,0,1-.9-.27l-.05-1,1-1.93.42.35Z"/><path class="cls-29" d="M211.92,237.88l.05,1-6.08,3.89L202.06,227c2.57-.51,3.52,1.56,4.84,3C208.07,233,208.69,236.25,211.92,237.88Z"/><path class="cls-30" d="M211.92,237.88c-3.23-1.63-3.85-4.92-5-7.87l6-3.29V236Z"/></svg>