<svg id="Layer_1_Image" data-name="Layer 1 Image" xmlns="http://www.w3.org/2000/svg" viewBox="0 0 161 120"><defs><style>.cls-1{fill:#fdfdfd;}.cls-2{fill:#71468c;}.cls-3{fill:#04c3f5;}.cls-4{fill:#c996bf;}.cls-5{fill:#fb56b2;}.cls-6{fill:#b092c0;}.cls-7{fill:#32e2e4;}.cls-8{fill:#59428c;}.cls-9{fill:#3be1d7;}.cls-10{fill:#35e2e5;}</style></defs><path class="cls-1" d="M161,120H0V0H161ZM11.85,44.31l15.83,13.9,1.53-8.73c3-.16,5.95-.48,8.93-.41a7.18,7.18,0,0,0,6-2.81c9.39-11.09,12-23.77,8.65-37.71a5.1,5.1,0,0,0-3.13-3.21c-7.92-1.58-15.92-2.82-24.2-4.22,2.42,6.29,5.41,12.1,4.43,18.8-7,1.73-12,6.15-16,12-3.4.7-2.69,4-3.87,6.15C8,41.7,8.18,41.78,11.85,44.31ZM149,66c0-.87.06-1.73.08-2.6L159,58.42c-9.24-6.54-18.21-13-27.33-19.22a7.23,7.23,0,0,0-5.06-1C118.5,40,110.69,42.55,104,47.76a3,3,0,0,0-.78.08c-11.45-12.41-23-24.76-35.69-36.59C60.2,41,41.43,58.3,12.93,66.27c8.64,9,16.88,17.66,25.3,26.16A6.87,6.87,0,0,0,42.63,94c11.79.27,22.59-3.23,32.81-8.86,1.43-.79,3-1.39,4.45-2.08-1.15,2.69,1.18,3.43,2.65,4.49q13.32,9.61,26.73,19.1c3.59,2.55,7.26,5,10.68,7.36,1.3-6,2.53-11.75,3.77-17.45.4,1.36,1.25,2.76,1.14,4.07-.47,5.38-1.22,10.74-1.89,16.31a19.68,19.68,0,0,0,4,0c4.84-.93,9.61-2.29,14.48-3,4.57-.67,6.78-3.6,8.37-7.35C155.6,92.91,155.89,79.36,149,66Z"/><path class="cls-2" d="M79.89,83.06c-1.48.69-3,1.29-4.45,2.08-10.22,5.63-21,9.13-32.81,8.86a6.87,6.87,0,0,1-4.4-1.57c-8.42-8.5-16.66-17.18-25.3-26.16,28.5-8,47.27-25.31,54.64-55,12.72,11.83,24.24,24.18,35.69,36.59-3.21,2.72-6.94,5-9.55,8.25A72.56,72.56,0,0,0,80.15,82.27,1.72,1.72,0,0,1,79.89,83.06Z"/><path class="cls-3" d="M79.89,83.06a1.72,1.72,0,0,0,.26-.79C91.72,75,99.64,64.69,105.34,52.44c1-2.22.1-3.39-1.3-4.68,6.65-5.21,14.46-7.79,22.53-9.59a7.23,7.23,0,0,1,5.06,1c9.12,6.23,18.09,12.68,27.33,19.22L149,63.37l-2.49-3L110,67.69c7.68,7.15,11.27,15.59,13.83,24.55l-.12,4.32c-1.24,5.7-2.47,11.41-3.77,17.45-3.42-2.35-7.09-4.81-10.68-7.36q-13.39-9.51-26.73-19.1C81.07,86.49,78.74,85.75,79.89,83.06Z"/><path class="cls-4" d="M123.72,96.56l.12-4.32c1.18-2.83,3.17-5.17,4.66-7.84C132,78.18,136.92,73,142.28,68.3A8.16,8.16,0,0,1,149,66c6.94,13.39,6.65,26.94.84,40.59-1.59,3.75-3.8,6.68-8.37,7.35-4.87.7-9.64,2.06-14.48,3a19.68,19.68,0,0,1-4,0c.67-5.57,1.42-10.93,1.89-16.31C125,99.32,124.12,97.92,123.72,96.56Z"/><path class="cls-5" d="M29.91,19.92c1-6.7-2-12.51-4.43-18.8,8.28,1.4,16.28,2.64,24.2,4.22a5.1,5.1,0,0,1,3.13,3.21c3.3,13.94.74,26.62-8.65,37.71a7.18,7.18,0,0,1-6,2.81c-3-.07-6,.25-8.93.41l-7.67-.31C27.33,39.69,31.08,30.47,29.91,19.92Z"/><path class="cls-6" d="M149,66a8.16,8.16,0,0,0-6.67,2.33C136.92,73,132,78.18,128.5,84.4c-1.49,2.67-3.48,5-4.66,7.84-2.56-9-6.15-17.4-13.83-24.55l36.53-7.36,2.49,3C149,64.24,149,65.1,149,66Z"/><path class="cls-7" d="M29.91,19.92c1.17,10.55-2.58,19.77-8.37,29.25l7.67.31-1.53,8.73L11.85,44.31,13,43c2.8.56,5.59,1.2,8.41,1.58.36.05.89-1.24,1.79-2.58H18a8.66,8.66,0,0,0,0-7c1.29-1.31,2.65-2.56,3.8-4,.18-.23-.47-1.36-1-1.79-.22-.18-1.43.26-1.55.63C18.72,31.53,18.4,33.28,18,35c-2.49.47-3.27-1.3-4.05-3.07C17.87,26.07,22.88,21.65,29.91,19.92ZM24.76,30.21a4.75,4.75,0,0,0-.45,1.05c0,.09.61.44.68.38a4.86,4.86,0,0,0,.66-.93Zm2.46-3-.7.32c.09.1.21.31.28.29a3.88,3.88,0,0,0,.7-.3Z"/><path class="cls-8" d="M104,47.76c1.4,1.29,2.33,2.46,1.3,4.68C99.64,64.69,91.72,75,80.15,82.27A72.56,72.56,0,0,1,93.71,56.09c2.61-3.22,6.34-5.53,9.55-8.25A3,3,0,0,1,104,47.76Z"/><path class="cls-9" d="M13,43l-1.15,1.31C8.18,41.78,8,41.7,10.08,38.08c1.18-2.1.47-5.45,3.87-6.15C14.73,33.7,15.51,35.47,18,35h0a8.66,8.66,0,0,1,0,7H14Z"/><path class="cls-10" d="M15,42H23.2c-.9,1.34-1.43,2.63-1.79,2.58-2.82-.38-5.61-1-8.41-1.58l1-1Z"/><path class="cls-10" d="M18,35c.4-1.72.72-3.47,1.27-5.14.12-.37,1.33-.81,1.55-.63.51.43,1.16,1.56,1,1.79-1.15,1.42-2.51,2.67-3.8,4Z"/><path class="cls-10" d="M24.76,30.21l.89.5a4.86,4.86,0,0,1-.66.93c-.07.06-.69-.29-.68-.38A4.75,4.75,0,0,1,24.76,30.21Z"/><path class="cls-10" d="M27.22,27.19l.28.31a3.88,3.88,0,0,1-.7.3c-.07,0-.19-.19-.28-.29Z"/><path class="cls-7" d="M15,42h0Z"/></svg>