<svg id="Layer_1_Image" data-name="Layer 1 Image" xmlns="http://www.w3.org/2000/svg" viewBox="0 0 169 96"><defs><style>.cls-1{fill:#fdfdfd;}.cls-2{fill:#fba056;}.cls-3{fill:#fce02c;}.cls-4{fill:#07c3f4;}.cls-5{fill:#72488b;}.cls-6{fill:#fce02e;}.cls-7{fill:#fcaa64;}.cls-8{fill:#facf1d;}.cls-9{fill:#0cc2f2;}.cls-10{fill:#fddd04;}.cls-11{fill:#fbdf2d;}.cls-12{fill:#58438c;}.cls-13{fill:#714a8e;}.cls-14{fill:#fca962;}.cls-15{fill:#fcd510;}.cls-16{fill:#fcac61;}.cls-17{fill:#734377;}.cls-18{fill:#fbdf09;}.cls-19{fill:#f6d909;}</style></defs><path class="cls-1" d="M0,0H169V96H0ZM59.12,28.87l-2-.85c-1.88-2.9-4.36-5.59-5.5-8.76-1.94-5.39-5.07-9-10.73-10.13-.16,0-.32,0-.68-.07-2.33,1.25-4.8,2.56-7.26,3.9a5.17,5.17,0,0,0-3,4.21c-1.56,12.32,2.92,22,12.37,29.7a3.51,3.51,0,0,0,4.09.54c-2.62,7.92-4.28,16-3.39,24.38,0,.26-.31.55-.64,1.11L30.9,74.68l7.5,14.06,4,1c8.4,2.12,17.91-2,22-9.44l.79-1c1.48-.07,3.06.18,4.41-.26,5.69-1.85,11.08-.74,16.44,1.23,4.31,3.16,9.57,2.62,14.42,3.62A3.32,3.32,0,0,0,103,82.33c1.26-2.27,2.18-4.72,3.24-7.1a5.78,5.78,0,0,1,.72,0c1.39,1.24,2.82,2.12,4.88,1.72,12.26-2.41,20.84-9.3,25.66-20.88,1.05-2.51,1-4.74-.73-6.94s-3.13-4.25-4.68-6.38a11,11,0,0,1,2.08-2.11c2.38-1.35,2.66-2.94,2.15-5.69-1.14-6.05-1.26-12.29-2.33-18.36-.68-3.86-.37-8.08-3-12.18-4.56,6.19-9.57,11.08-16.88,12.71l-1.77-.2.34-4.64c-5-.49-8.2.25-15.63,3.58-3.09.2-6.15,1.47-9.29.33l-9.06.95c-1,4.2-1.76,7.67-2.56,11.15a21.17,21.17,0,0,0-3-2.43c-1.22-.68-2.92-1.74-3.91-1.35C65.76,25.81,61.92,26.22,59.12,28.87Z"/><path class="cls-2" d="M112.3,16.89l1.77.2c.09,2.47-.39,5.12.37,7.36,1.24,3.64,2.83,7.09,6.63,9.32,3.61,2.11,6.6,5.27,9.84,8,.19.16.13.63.18.95-1,.55-2.62.29-2.58,2.26a2.47,2.47,0,0,1-1.34,1.92c-3,.88-6,1.53-9,2.26-.33-.33-.67-1-1-1-3,.21-6.1.52-9.14.81,0-.33,0-.92-.12-1-3.2-.83-5.25-4.93-9.34-3.32-.37.14-1-.47-1.54-.67-1-.37-2-.69-3-1l-.78-.43.76.45-1,2-2.11-.14c.29-.72,1-1.62.81-2.13-3.49-8.56-2.36-17.81-4-26.63,3.14,1.14,6.2-.13,9.29-.33.95.72,1.88,2,2.85,2.06C104,18,108.27,18.52,112.3,16.89Z"/><path class="cls-3" d="M90.94,44.92l2.11.14,0,2c1.23,2.51,4,3.65,5.48,5.92a4.14,4.14,0,0,0,2.05,1.06,4.68,4.68,0,0,0,1.45,0c0,1.27.19,2.4-1.44,3.27-3.23,1.72-6.22,3.89-9.63,6.08,1.67,1.38,3.31,2.86,5.07,4.19s4.75,2.24,5.39,4c1,2.67,3.69,1.85,4.78,3.61-1.06,2.38-2,4.83-3.24,7.1a3.32,3.32,0,0,1-2.58,1.59c-4.85-1-10.11-.46-14.42-3.62-.13-2,.67-4.18-.37-5.76l-9.55.58a14.28,14.28,0,0,0-1-3c-1.25-2.07-2.69-4-4-6,2.45-1.58,4.94-3.1,7.33-4.76,1-.71,2.28-1.54,2.7-2.61,1.69-4.3,2.58-8.76,1.56-13.42-.24-1.1-.32-2.22-.48-3.33Z"/><path class="cls-4" d="M46.46,47.41a3.51,3.51,0,0,1-4.09-.54C32.92,39.17,28.44,29.49,30,17.17A5.17,5.17,0,0,1,33,13c2.46-1.34,4.93-2.65,7.26-3.9.36,0,.52,0,.68.07,5.66,1.17,8.79,4.74,10.73,10.13,1.14,3.17,3.62,5.86,5.5,8.76l-9.53,3.79,10.27,10L47.89,47Z"/><path class="cls-5" d="M118.19,49.17c3-.73,6-1.38,9-2.26A2.47,2.47,0,0,0,128.51,45c0-2,1.56-1.71,2.58-2.26h1c1.55,2.13,3,4.32,4.68,6.38s1.78,4.43.73,6.94c-4.82,11.58-13.4,18.47-25.66,20.88-2.06.4-3.49-.48-4.88-1.72,1.6-3.79,3.21-7.58,4.8-11.38,1.79-4.24,3.55-8.5,5.32-12.75Z"/><path class="cls-6" d="M46.46,47.41,47.89,47l1,1.9,7.24-.5,3-4.39,1,1.85-2.78,6.32c1.22,3.5,1.36,6.85,3.05,8.09,3.09,2.28,2.49,5,2.6,7.83l-1,3L54.63,58.28,54,61.09c-1.46-.12-2.11.56-2,2h0l-1.79.55L51,65.1c0,1.78-.84,2.57-2.55,3.05-3.61,1-4.61,3.17-3.55,6.73.6,2,1,4.05,1.57,6.07,1.88.4,3.65,1.2,5.35,1.06,4.19-.33,8.34-1.09,12.51-1.68-4.06,7.47-13.57,11.56-22,9.44l-4-1L30.9,74.68,42.43,72.9c.33-.56.66-.85.64-1.11C42.18,63.38,43.84,55.33,46.46,47.41Zm-.92,15.74c2.1-.7,2.85-1.77,2.25-3.41a1.77,1.77,0,0,0-1.64-.51C44.24,60,45.08,61.48,45.54,63.15Zm0-6.83-.21.34.35,0Z"/><path class="cls-7" d="M132.09,42.72h-1c-.05-.32,0-.79-.18-.95-3.24-2.74-6.23-5.9-9.84-8-3.8-2.23-5.39-5.68-6.63-9.32-.76-2.24-.28-4.89-.37-7.36,7.31-1.63,12.32-6.52,16.88-12.71,2.67,4.1,2.36,8.32,3,12.18,1.07,6.07,1.19,12.31,2.33,18.36.51,2.75.23,4.34-2.15,5.69A11,11,0,0,0,132.09,42.72Z"/><path class="cls-8" d="M117.08,51.07c-1.77,4.25-3.53,8.51-5.32,12.75-1.59,3.8-3.2,7.59-4.8,11.38a5.78,5.78,0,0,0-.72,0c-1.09-1.76-3.8-.94-4.78-3.61-.64-1.76-3.57-2.62-5.39-4s-3.4-2.81-5.07-4.19c3.41-2.19,6.4-4.36,9.63-6.08,1.63-.87,1.39-2,1.44-3.27a7.07,7.07,0,0,1,2-1c2.73-.37,5.85,1,8-1.88C113.78,53.18,115.33,48.94,117.08,51.07Z"/><path class="cls-9" d="M90.94,44.92,82.17,42l-1-3q-2.5-5.39-5-10.76c.8-3.48,1.6-7,2.56-11.15l9.06-.95c1.67,8.82.54,18.07,4,26.63C92,43.3,91.23,44.2,90.94,44.92Z"/><path class="cls-10" d="M64.36,80.33C60.19,80.92,56,81.68,51.85,82c-1.7.14-3.47-.66-5.35-1.06-.52-2-1-4.06-1.57-6.07-1.06-3.56-.06-5.71,3.55-6.73,1.71-.48,2.6-1.27,2.55-3.05l1-2h0c1.46.13,2.13-.53,2-2l.61-2.81,7.43,12.83c.33,1.17.59,2.38,1,3.51.62,1.6,1.38,3.14,2.07,4.71Z"/><path class="cls-11" d="M65.15,79.33c-.69-1.57-1.45-3.11-2.07-4.71-.43-1.13-.69-2.34-1-3.51l1-3,1.79-3c0,.76.11,1.52.07,2.28-.06,1.26.63,1.6,1.71,1.55A11,11,0,0,1,73,74.69c1,2.13,1.79,2.08,3.07.43l9.55-.58c1,1.58.24,3.73.37,5.76-5.36-2-10.75-3.08-16.44-1.23C68.21,79.51,66.63,79.26,65.15,79.33Z"/><path class="cls-12" d="M57.86,41.83l-10.27-10L57.12,28l2,.85-2.91,1.94c2.41.28,4.74.07,6.45,2,.39.44,1.57.18,2.39.24-.36,1.19-.44,2.59-1.13,3.53-1.5,2-3.31,3.83-5,5.73Z"/><path class="cls-13" d="M65.05,33c-.82-.06-2,.2-2.39-.24-1.71-1.91-4-1.7-6.45-2l2.91-1.94c2.8-2.65,6.64-3.06,10-4.39,1-.39,2.69.67,3.91,1.35a21.17,21.17,0,0,1,3,2.43q2.52,5.39,5,10.76l-2.07,0h0c-.18-1.17.19-2.15-1.43-3.16-2.6-1.63-4.61-4.22-6.8-6.47-.92-.95-1.1-3.28-3.1-2.13-1.54.89-.28,2.3.13,3.48.08.23-.16.58-.26.92Z"/><path class="cls-14" d="M112.3,16.89c-4,1.63-8.28,1.14-12.44,1-1,0-1.9-1.34-2.85-2.06,7.43-3.33,10.6-4.07,15.63-3.58Z"/><path class="cls-15" d="M117.08,51.07c-1.75-2.13-3.3,2.11-5,.16-2.15,2.89-5.27,1.51-8,1.88a7.07,7.07,0,0,0-2,1,4.68,4.68,0,0,1-1.45,0A4.14,4.14,0,0,1,98.57,53c-1.53-2.27-4.25-3.41-5.48-5.92,1.3.14,2.6.26,3.89.43L108.08,49c3-.29,6.09-.6,9.14-.81.3,0,.64.63,1,1Z"/><path class="cls-16" d="M108.08,49,97,47.5c-1.29-.17-2.59-.29-3.89-.43l0-2,1-2,0,0c1,.35,2,.67,3,1,.53.2,1.17.81,1.54.67,4.09-1.61,6.14,2.49,9.34,3.32C108.08,48.1,108,48.69,108.08,49Z"/><path class="cls-16" d="M94.06,43.06l-.76-.45.78.43Z"/><path class="cls-17" d="M79.06,39l2.07,0,1,3c.16,1.11.24,2.23.48,3.33,1,4.66.13,9.12-1.56,13.42-.42,1.07-1.67,1.9-2.7,2.61C76,63,73.51,64.53,71.06,66.11c-2.2-.17-3.13,1.63-4.43,2.85-1.08.05-1.77-.29-1.71-1.55,0-.76,0-1.52-.07-2.28a43.4,43.4,0,0,0,.1-6.34c-.58-4.66-1.41-9.28-4.76-12.94l-1-1.85-.22-1.71c1.68-1.9,3.49-3.7,5-5.73.69-.94.77-2.34,1.13-3.53l2.55-1.35c.1-.34.34-.69.26-.92-.41-1.18-1.67-2.59-.13-3.48,2-1.15,2.18,1.18,3.1,2.13,2.19,2.25,4.2,4.84,6.8,6.47,1.62,1,1.25,2,1.43,3.16l-.9,1.43.64.27Z"/><path class="cls-18" d="M66.63,69c1.3-1.22,2.23-3,4.43-2.85,1.35,2,2.79,4,4,6a14.28,14.28,0,0,1,1,3C74.8,76.77,74,76.82,73,74.69A11,11,0,0,0,66.63,69Z"/><path class="cls-11" d="M58.93,42.29,59.15,44l-3,4.39-7.24.5-1-1.9,10-5.16Z"/><path class="cls-19" d="M60.19,45.85c3.35,3.66,4.18,8.28,4.76,12.94a43.4,43.4,0,0,1-.1,6.34l-1.79,3c-.11-2.84.49-5.55-2.6-7.83-1.69-1.24-1.83-4.59-3.05-8.09Z"/><path class="cls-11" d="M45.54,63.15c-.46-1.67-1.3-3.11.61-3.92a1.77,1.77,0,0,1,1.64.51C48.39,61.38,47.64,62.45,45.54,63.15Z"/><path class="cls-11" d="M54,61.09c.15,1.47-.52,2.13-2,2C51.91,61.65,52.56,61,54,61.09Z"/><path class="cls-11" d="M52,63.1l-1,2-.78-1.45Z"/><polygon class="cls-11" points="45.56 56.32 45.7 56.69 45.35 56.66 45.56 56.32"/><path class="cls-13" d="M79.06,39l-.26,1.7-.64-.27.9-1.43Z"/></svg>