<svg id="Layer_1_Image" data-name="Layer 1 Image" xmlns="http://www.w3.org/2000/svg" viewBox="0 0 72 93"><defs><style>.cls-1{fill:#fefdfd;}.cls-2{fill:#fde02e;}.cls-3{fill:#fb58b3;}</style></defs><path class="cls-1" d="M72,93H0V0H72ZM33.49,2.8C31.33,8.16,29,13.09,27.43,18.27c-.55,1.85.25,4.69,1.44,6.37,5.27,7.44,13,9.47,21.63,8.6,2.07-.21,5.41-.63,5.87-1.82,2.85-7.5,5.05-15.24,7.73-23.71C52.53,11.88,42.46,11.39,33.49,2.8Zm-2.8,84.83C31.47,74.72,37,65.68,48.11,60a98.28,98.28,0,0,1-8-6c-4.1-3.83-8.25-3.4-12.71-.9A29.47,29.47,0,0,0,12.77,71.21c-.35,1.21-.23,3.38.54,4C18.79,79.36,24.49,83.24,30.69,87.63Z"/><path class="cls-2" d="M33.49,2.8c9,8.59,19,9.08,30.61,4.91-2.68,8.47-4.88,16.21-7.73,23.71-.46,1.19-3.8,1.61-5.87,1.82-8.65.87-16.36-1.16-21.63-8.6-1.19-1.68-2-4.52-1.44-6.37C29,13.09,31.33,8.16,33.49,2.8Z"/><path class="cls-3" d="M30.69,87.63c-6.2-4.39-11.9-8.27-17.38-12.45-.77-.59-.89-2.76-.54-4A29.47,29.47,0,0,1,27.36,53.06c4.46-2.5,8.61-2.93,12.71.9a98.28,98.28,0,0,0,8,6C37,65.68,31.47,74.72,30.69,87.63Z"/></svg>